  0
SECTION
  2
BLOCKS
  0
ENDSEC
  0
SECTION
  2
ENTITIES
  0
LINE
  8
0
 10
1.64107
 20
-4.47832
 11
2.0779
 21
-4.41353
  0
LINE
  8
0
 10
2.0779
 20
-4.41353
 11
2.50627
 21
-4.30623
  0
LINE
  8
0
 10
2.50627
 20
-4.30623
 11
2.92207
 21
-4.15746
  0
LINE
  8
0
 10
2.92207
 20
-4.15746
 11
3.32127
 21
-3.96864
  0
LINE
  8
0
 10
3.32127
 20
-3.96864
 11
3.70006
 21
-3.74161
  0
LINE
  8
0
 10
3.70006
 20
-3.74161
 11
4.05476
 21
-3.47855
  0
LINE
  8
0
 10
4.05476
 20
-3.47855
 11
4.38197
 21
-3.18198
  0
LINE
  8
0
 10
4.38197
 20
-3.18198
 11
4.67854
 21
-2.85477
  0
LINE
  8
0
 10
4.67854
 20
-2.85477
 11
4.9416
 21
-2.50006
  0
LINE
  8
0
 10
4.9416
 20
-2.50006
 11
5.16864
 21
-2.12128
  0
LINE
  8
0
 10
5.16864
 20
-2.12128
 11
5.35745
 21
-1.72206
  0
LINE
  8
0
 10
5.35745
 20
-1.72206
 11
5.50623
 21
-1.30627
  0
LINE
  8
0
 10
5.50623
 20
-1.30627
 11
5.61353
 21
-0.877899
  0
LINE
  8
0
 10
5.61353
 20
-0.877899
 11
5.67833
 21
-0.441071
  0
LINE
  8
0
 10
5.67833
 20
-0.441071
 11
5.7
 21
0
  0
LINE
  8
0
 10
5.7
 20
0
 11
5.67833
 21
0.441071
  0
LINE
  8
0
 10
5.67833
 20
0.441071
 11
5.61353
 21
0.877899
  0
LINE
  8
0
 10
5.61353
 20
0.877899
 11
5.50623
 21
1.30627
  0
LINE
  8
0
 10
5.50623
 20
1.30627
 11
5.35745
 21
1.72206
  0
LINE
  8
0
 10
5.35745
 20
1.72206
 11
5.16864
 21
2.12128
  0
LINE
  8
0
 10
5.16864
 20
2.12128
 11
4.9416
 21
2.50006
  0
LINE
  8
0
 10
4.9416
 20
2.50006
 11
4.67854
 21
2.85477
  0
LINE
  8
0
 10
4.67854
 20
2.85477
 11
4.38197
 21
3.18198
  0
LINE
  8
0
 10
4.38197
 20
3.18198
 11
4.05476
 21
3.47855
  0
LINE
  8
0
 10
4.05476
 20
3.47855
 11
3.70006
 21
3.74161
  0
LINE
  8
0
 10
3.70006
 20
3.74161
 11
3.32127
 21
3.96864
  0
LINE
  8
0
 10
3.32127
 20
3.96864
 11
2.92207
 21
4.15746
  0
LINE
  8
0
 10
2.92207
 20
4.15746
 11
2.50627
 21
4.30623
  0
LINE
  8
0
 10
2.50627
 20
4.30623
 11
2.0779
 21
4.41353
  0
LINE
  8
0
 10
2.0779
 20
4.41353
 11
1.64107
 21
4.47832
  0
LINE
  8
0
 10
1.64107
 20
4.47832
 11
1.2
 21
4.5
  0
LINE
  8
0
 10
1.2
 20
4.5
 11
-1.2
 21
4.5
  0
LINE
  8
0
 10
-1.2
 20
4.5
 11
-1.64107
 21
4.47832
  0
LINE
  8
0
 10
-1.64107
 20
4.47832
 11
-2.0779
 21
4.41353
  0
LINE
  8
0
 10
-2.0779
 20
4.41353
 11
-2.50627
 21
4.30623
  0
LINE
  8
0
 10
-2.50627
 20
4.30623
 11
-2.92207
 21
4.15746
  0
LINE
  8
0
 10
-2.92207
 20
4.15746
 11
-3.32127
 21
3.96864
  0
LINE
  8
0
 10
-3.32127
 20
3.96864
 11
-3.70006
 21
3.74161
  0
LINE
  8
0
 10
-3.70006
 20
3.74161
 11
-4.05476
 21
3.47855
  0
LINE
  8
0
 10
-4.05476
 20
3.47855
 11
-4.38197
 21
3.18198
  0
LINE
  8
0
 10
-4.38197
 20
3.18198
 11
-4.67854
 21
2.85477
  0
LINE
  8
0
 10
-4.67854
 20
2.85477
 11
-4.9416
 21
2.50006
  0
LINE
  8
0
 10
-4.9416
 20
2.50006
 11
-5.16864
 21
2.12128
  0
LINE
  8
0
 10
-5.16864
 20
2.12128
 11
-5.35745
 21
1.72206
  0
LINE
  8
0
 10
-5.35745
 20
1.72206
 11
-5.50623
 21
1.30627
  0
LINE
  8
0
 10
-5.50623
 20
1.30627
 11
-5.61353
 21
0.877899
  0
LINE
  8
0
 10
-5.61353
 20
0.877899
 11
-5.67833
 21
0.441071
  0
LINE
  8
0
 10
-5.67833
 20
0.441071
 11
-5.7
 21
0
  0
LINE
  8
0
 10
-5.7
 20
0
 11
-5.67833
 21
-0.441071
  0
LINE
  8
0
 10
-5.67833
 20
-0.441071
 11
-5.61353
 21
-0.877899
  0
LINE
  8
0
 10
-5.61353
 20
-0.877899
 11
-5.50623
 21
-1.30627
  0
LINE
  8
0
 10
-5.50623
 20
-1.30627
 11
-5.35745
 21
-1.72206
  0
LINE
  8
0
 10
-5.35745
 20
-1.72206
 11
-5.16864
 21
-2.12128
  0
LINE
  8
0
 10
-5.16864
 20
-2.12128
 11
-4.9416
 21
-2.50006
  0
LINE
  8
0
 10
-4.9416
 20
-2.50006
 11
-4.67854
 21
-2.85477
  0
LINE
  8
0
 10
-4.67854
 20
-2.85477
 11
-4.38197
 21
-3.18198
  0
LINE
  8
0
 10
-4.38197
 20
-3.18198
 11
-4.05476
 21
-3.47855
  0
LINE
  8
0
 10
-4.05476
 20
-3.47855
 11
-3.70006
 21
-3.74161
  0
LINE
  8
0
 10
-3.70006
 20
-3.74161
 11
-3.32127
 21
-3.96864
  0
LINE
  8
0
 10
-3.32127
 20
-3.96864
 11
-2.92207
 21
-4.15746
  0
LINE
  8
0
 10
-2.92207
 20
-4.15746
 11
-2.50627
 21
-4.30623
  0
LINE
  8
0
 10
-2.50627
 20
-4.30623
 11
-2.0779
 21
-4.41353
  0
LINE
  8
0
 10
-2.0779
 20
-4.41353
 11
-1.64107
 21
-4.47832
  0
LINE
  8
0
 10
-1.64107
 20
-4.47832
 11
-1.2
 21
-4.5
  0
LINE
  8
0
 10
-1.2
 20
-4.5
 11
1.2
 21
-4.5
  0
LINE
  8
0
 10
1.2
 20
-4.5
 11
1.64107
 21
-4.47832
  0
LINE
  8
0
 10
-0.147018
 20
-1.49277
 11
-0.292633
 21
-1.47118
  0
LINE
  8
0
 10
-0.292633
 20
-1.47118
 11
-0.435425
 21
-1.43541
  0
LINE
  8
0
 10
-0.435425
 20
-1.43541
 11
-0.57402
 21
-1.38582
  0
LINE
  8
0
 10
-0.57402
 20
-1.38582
 11
-0.707092
 21
-1.32288
  0
LINE
  8
0
 10
-0.707092
 20
-1.32288
 11
-0.833344
 21
-1.24719
  0
LINE
  8
0
 10
-0.833344
 20
-1.24719
 11
-0.951584
 21
-1.15952
  0
LINE
  8
0
 10
-0.951584
 20
-1.15952
 11
-1.06065
 21
-1.06065
  0
LINE
  8
0
 10
-1.06065
 20
-1.06065
 11
-1.15952
 21
-0.951584
  0
LINE
  8
0
 10
-1.15952
 20
-0.951584
 11
-1.24719
 21
-0.833344
  0
LINE
  8
0
 10
-1.24719
 20
-0.833344
 11
-1.32288
 21
-0.707092
  0
LINE
  8
0
 10
-1.32288
 20
-0.707092
 11
-1.38582
 21
-0.57402
  0
LINE
  8
0
 10
-1.38582
 20
-0.57402
 11
-1.43541
 21
-0.435425
  0
LINE
  8
0
 10
-1.43541
 20
-0.435425
 11
-1.47118
 21
-0.292633
  0
LINE
  8
0
 10
-1.47118
 20
-0.292633
 11
-1.49277
 21
-0.147018
  0
LINE
  8
0
 10
-1.49277
 20
-0.147018
 11
-1.5
 21
0
  0
LINE
  8
0
 10
-1.5
 20
0
 11
-1.49277
 21
0.147018
  0
LINE
  8
0
 10
-1.49277
 20
0.147018
 11
-1.47118
 21
0.292633
  0
LINE
  8
0
 10
-1.47118
 20
0.292633
 11
-1.43541
 21
0.435425
  0
LINE
  8
0
 10
-1.43541
 20
0.435425
 11
-1.38582
 21
0.57402
  0
LINE
  8
0
 10
-1.38582
 20
0.57402
 11
-1.32288
 21
0.707092
  0
LINE
  8
0
 10
-1.32288
 20
0.707092
 11
-1.24719
 21
0.833344
  0
LINE
  8
0
 10
-1.24719
 20
0.833344
 11
-1.15952
 21
0.951584
  0
LINE
  8
0
 10
-1.15952
 20
0.951584
 11
-1.06065
 21
1.06065
  0
LINE
  8
0
 10
-1.06065
 20
1.06065
 11
-0.951584
 21
1.15952
  0
LINE
  8
0
 10
-0.951584
 20
1.15952
 11
-0.833344
 21
1.24719
  0
LINE
  8
0
 10
-0.833344
 20
1.24719
 11
-0.707092
 21
1.32288
  0
LINE
  8
0
 10
-0.707092
 20
1.32288
 11
-0.57402
 21
1.38582
  0
LINE
  8
0
 10
-0.57402
 20
1.38582
 11
-0.435425
 21
1.43541
  0
LINE
  8
0
 10
-0.435425
 20
1.43541
 11
-0.292633
 21
1.47118
  0
LINE
  8
0
 10
-0.292633
 20
1.47118
 11
-0.147018
 21
1.49277
  0
LINE
  8
0
 10
-0.147018
 20
1.49277
 11
0
 21
1.5
  0
LINE
  8
0
 10
0
 20
1.5
 11
0.147018
 21
1.49277
  0
LINE
  8
0
 10
0.147018
 20
1.49277
 11
0.292633
 21
1.47118
  0
LINE
  8
0
 10
0.292633
 20
1.47118
 11
0.435425
 21
1.43541
  0
LINE
  8
0
 10
0.435425
 20
1.43541
 11
0.57402
 21
1.38582
  0
LINE
  8
0
 10
0.57402
 20
1.38582
 11
0.707092
 21
1.32288
  0
LINE
  8
0
 10
0.707092
 20
1.32288
 11
0.833344
 21
1.24719
  0
LINE
  8
0
 10
0.833344
 20
1.24719
 11
0.951584
 21
1.15952
  0
LINE
  8
0
 10
0.951584
 20
1.15952
 11
1.06065
 21
1.06065
  0
LINE
  8
0
 10
1.06065
 20
1.06065
 11
1.15952
 21
0.951584
  0
LINE
  8
0
 10
1.15952
 20
0.951584
 11
1.24719
 21
0.833344
  0
LINE
  8
0
 10
1.24719
 20
0.833344
 11
1.32288
 21
0.707092
  0
LINE
  8
0
 10
1.32288
 20
0.707092
 11
1.38582
 21
0.57402
  0
LINE
  8
0
 10
1.38582
 20
0.57402
 11
1.43541
 21
0.435425
  0
LINE
  8
0
 10
1.43541
 20
0.435425
 11
1.47118
 21
0.292633
  0
LINE
  8
0
 10
1.47118
 20
0.292633
 11
1.49277
 21
0.147018
  0
LINE
  8
0
 10
1.49277
 20
0.147018
 11
1.5
 21
0
  0
LINE
  8
0
 10
1.5
 20
0
 11
1.49277
 21
-0.147018
  0
LINE
  8
0
 10
1.49277
 20
-0.147018
 11
1.47118
 21
-0.292633
  0
LINE
  8
0
 10
1.47118
 20
-0.292633
 11
1.43541
 21
-0.435425
  0
LINE
  8
0
 10
1.43541
 20
-0.435425
 11
1.38582
 21
-0.57402
  0
LINE
  8
0
 10
1.38582
 20
-0.57402
 11
1.32288
 21
-0.707092
  0
LINE
  8
0
 10
1.32288
 20
-0.707092
 11
1.24719
 21
-0.833344
  0
LINE
  8
0
 10
1.24719
 20
-0.833344
 11
1.15952
 21
-0.951584
  0
LINE
  8
0
 10
1.15952
 20
-0.951584
 11
1.06065
 21
-1.06065
  0
LINE
  8
0
 10
1.06065
 20
-1.06065
 11
0.951584
 21
-1.15952
  0
LINE
  8
0
 10
0.951584
 20
-1.15952
 11
0.833344
 21
-1.24719
  0
LINE
  8
0
 10
0.833344
 20
-1.24719
 11
0.707092
 21
-1.32288
  0
LINE
  8
0
 10
0.707092
 20
-1.32288
 11
0.57402
 21
-1.38582
  0
LINE
  8
0
 10
0.57402
 20
-1.38582
 11
0.435425
 21
-1.43541
  0
LINE
  8
0
 10
0.435425
 20
-1.43541
 11
0.292633
 21
-1.47118
  0
LINE
  8
0
 10
0.292633
 20
-1.47118
 11
0.147018
 21
-1.49277
  0
LINE
  8
0
 10
0.147018
 20
-1.49277
 11
0
 21
-1.5
  0
LINE
  8
0
 10
0
 20
-1.5
 11
-0.147018
 21
-1.49277
  0
ENDSEC
  0
SECTION
  2
OBJECTS
  0
DICTIONARY
  0
ENDSEC
  0
EOF
