  0
SECTION
  2
BLOCKS
  0
ENDSEC
  0
SECTION
  2
ENTITIES
  0
LINE
  8
0
 10
3.67642
 20
-1.79132
 11
3.85115
 21
-1.76541
  0
LINE
  8
0
 10
3.85115
 20
-1.76541
 11
4.02251
 21
-1.72249
  0
LINE
  8
0
 10
4.02251
 20
-1.72249
 11
4.18883
 21
-1.66298
  0
LINE
  8
0
 10
4.18883
 20
-1.66298
 11
4.34851
 21
-1.58745
  0
LINE
  8
0
 10
4.34851
 20
-1.58745
 11
4.50002
 21
-1.49664
  0
LINE
  8
0
 10
4.50002
 20
-1.49664
 11
4.64191
 21
-1.39142
  0
LINE
  8
0
 10
4.64191
 20
-1.39142
 11
4.77278
 21
-1.27278
  0
LINE
  8
0
 10
4.77278
 20
-1.27278
 11
4.89142
 21
-1.14191
  0
LINE
  8
0
 10
4.89142
 20
-1.14191
 11
4.99664
 21
-1.00002
  0
LINE
  8
0
 10
4.99664
 20
-1.00002
 11
5.08745
 21
-0.848511
  0
LINE
  8
0
 10
5.08745
 20
-0.848511
 11
5.16298
 21
-0.688828
  0
LINE
  8
0
 10
5.16298
 20
-0.688828
 11
5.22249
 21
-0.522507
  0
LINE
  8
0
 10
5.22249
 20
-0.522507
 11
5.26541
 21
-0.351151
  0
LINE
  8
0
 10
5.26541
 20
-0.351151
 11
5.29132
 21
-0.176422
  0
LINE
  8
0
 10
5.29132
 20
-0.176422
 11
5.29999
 21
0
  0
LINE
  8
0
 10
5.29999
 20
0
 11
5.29132
 21
0.176422
  0
LINE
  8
0
 10
5.29132
 20
0.176422
 11
5.26541
 21
0.351151
  0
LINE
  8
0
 10
5.26541
 20
0.351151
 11
5.22249
 21
0.522507
  0
LINE
  8
0
 10
5.22249
 20
0.522507
 11
5.16298
 21
0.688828
  0
LINE
  8
0
 10
5.16298
 20
0.688828
 11
5.08745
 21
0.848511
  0
LINE
  8
0
 10
5.08745
 20
0.848511
 11
4.99664
 21
1.00002
  0
LINE
  8
0
 10
4.99664
 20
1.00002
 11
4.89142
 21
1.14191
  0
LINE
  8
0
 10
4.89142
 20
1.14191
 11
4.77278
 21
1.27278
  0
LINE
  8
0
 10
4.77278
 20
1.27278
 11
4.64191
 21
1.39142
  0
LINE
  8
0
 10
4.64191
 20
1.39142
 11
4.50002
 21
1.49664
  0
LINE
  8
0
 10
4.50002
 20
1.49664
 11
4.34851
 21
1.58745
  0
LINE
  8
0
 10
4.34851
 20
1.58745
 11
4.18883
 21
1.66298
  0
LINE
  8
0
 10
4.18883
 20
1.66298
 11
4.02251
 21
1.72249
  0
LINE
  8
0
 10
4.02251
 20
1.72249
 11
3.85115
 21
1.76541
  0
LINE
  8
0
 10
3.85115
 20
1.76541
 11
3.67642
 21
1.79132
  0
LINE
  8
0
 10
3.67642
 20
1.79132
 11
3.5
 21
1.79999
  0
LINE
  8
0
 10
3.5
 20
1.79999
 11
-3.5
 21
1.79999
  0
LINE
  8
0
 10
-3.5
 20
1.79999
 11
-3.67642
 21
1.79132
  0
LINE
  8
0
 10
-3.67642
 20
1.79132
 11
-3.85115
 21
1.76541
  0
LINE
  8
0
 10
-3.85115
 20
1.76541
 11
-4.02251
 21
1.72249
  0
LINE
  8
0
 10
-4.02251
 20
1.72249
 11
-4.18883
 21
1.66298
  0
LINE
  8
0
 10
-4.18883
 20
1.66298
 11
-4.34851
 21
1.58745
  0
LINE
  8
0
 10
-4.34851
 20
1.58745
 11
-4.50002
 21
1.49664
  0
LINE
  8
0
 10
-4.50002
 20
1.49664
 11
-4.64191
 21
1.39142
  0
LINE
  8
0
 10
-4.64191
 20
1.39142
 11
-4.77278
 21
1.27278
  0
LINE
  8
0
 10
-4.77278
 20
1.27278
 11
-4.89142
 21
1.14191
  0
LINE
  8
0
 10
-4.89142
 20
1.14191
 11
-4.99664
 21
1.00002
  0
LINE
  8
0
 10
-4.99664
 20
1.00002
 11
-5.08745
 21
0.848511
  0
LINE
  8
0
 10
-5.08745
 20
0.848511
 11
-5.16298
 21
0.688828
  0
LINE
  8
0
 10
-5.16298
 20
0.688828
 11
-5.22249
 21
0.522507
  0
LINE
  8
0
 10
-5.22249
 20
0.522507
 11
-5.26541
 21
0.351151
  0
LINE
  8
0
 10
-5.26541
 20
0.351151
 11
-5.29132
 21
0.176422
  0
LINE
  8
0
 10
-5.29132
 20
0.176422
 11
-5.29999
 21
0
  0
LINE
  8
0
 10
-5.29999
 20
0
 11
-5.29132
 21
-0.176422
  0
LINE
  8
0
 10
-5.29132
 20
-0.176422
 11
-5.26541
 21
-0.351151
  0
LINE
  8
0
 10
-5.26541
 20
-0.351151
 11
-5.22249
 21
-0.522507
  0
LINE
  8
0
 10
-5.22249
 20
-0.522507
 11
-5.16298
 21
-0.688828
  0
LINE
  8
0
 10
-5.16298
 20
-0.688828
 11
-5.08745
 21
-0.848511
  0
LINE
  8
0
 10
-5.08745
 20
-0.848511
 11
-4.99664
 21
-1.00002
  0
LINE
  8
0
 10
-4.99664
 20
-1.00002
 11
-4.89142
 21
-1.14191
  0
LINE
  8
0
 10
-4.89142
 20
-1.14191
 11
-4.77278
 21
-1.27278
  0
LINE
  8
0
 10
-4.77278
 20
-1.27278
 11
-4.64191
 21
-1.39142
  0
LINE
  8
0
 10
-4.64191
 20
-1.39142
 11
-4.50002
 21
-1.49664
  0
LINE
  8
0
 10
-4.50002
 20
-1.49664
 11
-4.34851
 21
-1.58745
  0
LINE
  8
0
 10
-4.34851
 20
-1.58745
 11
-4.18883
 21
-1.66298
  0
LINE
  8
0
 10
-4.18883
 20
-1.66298
 11
-4.02251
 21
-1.72249
  0
LINE
  8
0
 10
-4.02251
 20
-1.72249
 11
-3.85115
 21
-1.76541
  0
LINE
  8
0
 10
-3.85115
 20
-1.76541
 11
-3.67642
 21
-1.79132
  0
LINE
  8
0
 10
-3.67642
 20
-1.79132
 11
-3.5
 21
-1.79999
  0
LINE
  8
0
 10
-3.5
 20
-1.79999
 11
3.5
 21
-1.79999
  0
LINE
  8
0
 10
3.5
 20
-1.79999
 11
3.67642
 21
-1.79132
  0
LINE
  8
0
 10
-2.79999
 20
-1.09999
 11
-2.89801
 21
-1.09518
  0
LINE
  8
0
 10
-2.89801
 20
-1.09518
 11
-2.99509
 21
-1.08078
  0
LINE
  8
0
 10
-2.99509
 20
-1.08078
 11
-3.09027
 21
-1.05693
  0
LINE
  8
0
 10
-3.09027
 20
-1.05693
 11
-3.18268
 21
-1.02386
  0
LINE
  8
0
 10
-3.18268
 20
-1.02386
 11
-3.27139
 21
-0.981918
  0
LINE
  8
0
 10
-3.27139
 20
-0.981918
 11
-3.35556
 21
-0.931458
  0
LINE
  8
0
 10
-3.35556
 20
-0.931458
 11
-3.43439
 21
-0.873001
  0
LINE
  8
0
 10
-3.43439
 20
-0.873001
 11
-3.5071
 21
-0.807098
  0
LINE
  8
0
 10
-3.5071
 20
-0.807098
 11
-3.573
 21
-0.73439
  0
LINE
  8
0
 10
-3.573
 20
-0.73439
 11
-3.63145
 21
-0.655563
  0
LINE
  8
0
 10
-3.63145
 20
-0.655563
 11
-3.68192
 21
-0.571396
  0
LINE
  8
0
 10
-3.68192
 20
-0.571396
 11
-3.72388
 21
-0.482681
  0
LINE
  8
0
 10
-3.72388
 20
-0.482681
 11
-3.75693
 21
-0.390274
  0
LINE
  8
0
 10
-3.75693
 20
-0.390274
 11
-3.78078
 21
-0.29509
  0
LINE
  8
0
 10
-3.78078
 20
-0.29509
 11
-3.79518
 21
-0.198013
  0
LINE
  8
0
 10
-3.79518
 20
-0.198013
 11
-3.79999
 21
-0.0999908
  0
LINE
  8
0
 10
-3.79999
 20
-0.0999908
 11
-3.79999
 21
0.0999908
  0
LINE
  8
0
 10
-3.79999
 20
0.0999908
 11
-3.79518
 21
0.198013
  0
LINE
  8
0
 10
-3.79518
 20
0.198013
 11
-3.78078
 21
0.29509
  0
LINE
  8
0
 10
-3.78078
 20
0.29509
 11
-3.75693
 21
0.390274
  0
LINE
  8
0
 10
-3.75693
 20
0.390274
 11
-3.72388
 21
0.482681
  0
LINE
  8
0
 10
-3.72388
 20
0.482681
 11
-3.68192
 21
0.571396
  0
LINE
  8
0
 10
-3.68192
 20
0.571396
 11
-3.63145
 21
0.655563
  0
LINE
  8
0
 10
-3.63145
 20
0.655563
 11
-3.573
 21
0.73439
  0
LINE
  8
0
 10
-3.573
 20
0.73439
 11
-3.5071
 21
0.807098
  0
LINE
  8
0
 10
-3.5071
 20
0.807098
 11
-3.43439
 21
0.873001
  0
LINE
  8
0
 10
-3.43439
 20
0.873001
 11
-3.35556
 21
0.931458
  0
LINE
  8
0
 10
-3.35556
 20
0.931458
 11
-3.27139
 21
0.981918
  0
LINE
  8
0
 10
-3.27139
 20
0.981918
 11
-3.18268
 21
1.02386
  0
LINE
  8
0
 10
-3.18268
 20
1.02386
 11
-3.09027
 21
1.05693
  0
LINE
  8
0
 10
-3.09027
 20
1.05693
 11
-2.99509
 21
1.08078
  0
LINE
  8
0
 10
-2.99509
 20
1.08078
 11
-2.89801
 21
1.09518
  0
LINE
  8
0
 10
-2.89801
 20
1.09518
 11
-2.79999
 21
1.09999
  0
LINE
  8
0
 10
-2.79999
 20
1.09999
 11
2.79999
 21
1.09999
  0
LINE
  8
0
 10
2.79999
 20
1.09999
 11
2.89801
 21
1.09518
  0
LINE
  8
0
 10
2.89801
 20
1.09518
 11
2.99509
 21
1.08078
  0
LINE
  8
0
 10
2.99509
 20
1.08078
 11
3.09027
 21
1.05693
  0
LINE
  8
0
 10
3.09027
 20
1.05693
 11
3.18268
 21
1.02386
  0
LINE
  8
0
 10
3.18268
 20
1.02386
 11
3.27139
 21
0.981918
  0
LINE
  8
0
 10
3.27139
 20
0.981918
 11
3.35556
 21
0.931458
  0
LINE
  8
0
 10
3.35556
 20
0.931458
 11
3.43439
 21
0.873001
  0
LINE
  8
0
 10
3.43439
 20
0.873001
 11
3.5071
 21
0.807098
  0
LINE
  8
0
 10
3.5071
 20
0.807098
 11
3.573
 21
0.73439
  0
LINE
  8
0
 10
3.573
 20
0.73439
 11
3.63145
 21
0.655563
  0
LINE
  8
0
 10
3.63145
 20
0.655563
 11
3.68192
 21
0.571396
  0
LINE
  8
0
 10
3.68192
 20
0.571396
 11
3.72388
 21
0.482681
  0
LINE
  8
0
 10
3.72388
 20
0.482681
 11
3.75693
 21
0.390274
  0
LINE
  8
0
 10
3.75693
 20
0.390274
 11
3.78078
 21
0.29509
  0
LINE
  8
0
 10
3.78078
 20
0.29509
 11
3.79518
 21
0.198013
  0
LINE
  8
0
 10
3.79518
 20
0.198013
 11
3.79999
 21
0.0999908
  0
LINE
  8
0
 10
3.79999
 20
0.0999908
 11
3.79999
 21
-0.0999908
  0
LINE
  8
0
 10
3.79999
 20
-0.0999908
 11
3.79518
 21
-0.198013
  0
LINE
  8
0
 10
3.79518
 20
-0.198013
 11
3.78078
 21
-0.29509
  0
LINE
  8
0
 10
3.78078
 20
-0.29509
 11
3.75693
 21
-0.390274
  0
LINE
  8
0
 10
3.75693
 20
-0.390274
 11
3.72388
 21
-0.482681
  0
LINE
  8
0
 10
3.72388
 20
-0.482681
 11
3.68192
 21
-0.571396
  0
LINE
  8
0
 10
3.68192
 20
-0.571396
 11
3.63145
 21
-0.655563
  0
LINE
  8
0
 10
3.63145
 20
-0.655563
 11
3.573
 21
-0.73439
  0
LINE
  8
0
 10
3.573
 20
-0.73439
 11
3.5071
 21
-0.807098
  0
LINE
  8
0
 10
3.5071
 20
-0.807098
 11
3.43439
 21
-0.873001
  0
LINE
  8
0
 10
3.43439
 20
-0.873001
 11
3.35556
 21
-0.931458
  0
LINE
  8
0
 10
3.35556
 20
-0.931458
 11
3.27139
 21
-0.981918
  0
LINE
  8
0
 10
3.27139
 20
-0.981918
 11
3.18268
 21
-1.02386
  0
LINE
  8
0
 10
3.18268
 20
-1.02386
 11
3.09027
 21
-1.05693
  0
LINE
  8
0
 10
3.09027
 20
-1.05693
 11
2.99509
 21
-1.08078
  0
LINE
  8
0
 10
2.99509
 20
-1.08078
 11
2.89801
 21
-1.09518
  0
LINE
  8
0
 10
2.89801
 20
-1.09518
 11
2.79999
 21
-1.09999
  0
LINE
  8
0
 10
2.79999
 20
-1.09999
 11
-2.79999
 21
-1.09999
  0
ENDSEC
  0
SECTION
  2
OBJECTS
  0
DICTIONARY
  0
ENDSEC
  0
EOF
